<svg width="16" height="20" viewBox="0 0 16 20" fill="none" xmlns="http://www.w3.org/2000/svg">
<path d="M8 20C8 20 15.5 12.8925 15.5 7.5C15.5 5.51088 14.7098 3.60322 13.3033 2.1967C11.8968 0.790176 9.98912 0 8 0C6.01088 0 4.10322 0.790176 2.6967 2.1967C1.29018 3.60322 0.5 5.51088 0.5 7.5C0.5 12.8925 8 20 8 20ZM8 11.25C7.00544 11.25 6.05161 10.8549 5.34835 10.1517C4.64509 9.44839 4.25 8.49456 4.25 7.5C4.25 6.50544 4.64509 5.55161 5.34835 4.84835C6.05161 4.14509 7.00544 3.75 8 3.75C8.99456 3.75 9.94839 4.14509 10.6517 4.84835C11.3549 5.55161 11.75 6.50544 11.75 7.5C11.75 8.49456 11.3549 9.44839 10.6517 10.1517C9.94839 10.8549 8.99456 11.25 8 11.25Z" fill="#E30613" style="fill:#E30613;fill:color(display-p3 0.8902 0.0235 0.0745);fill-opacity:1;"/>
</svg>
