<svg width="20" height="20" viewBox="0 0 20 20" fill="none" xmlns="http://www.w3.org/2000/svg">
<path fill-rule="evenodd" clip-rule="evenodd" d="M7.222 9.89694C9.522 7.58994 11.77 5.33794 13.966 3.14294C14.0809 3.0221 14.145 2.86171 14.145 2.69494C14.145 2.52816 14.0809 2.36777 13.966 2.24694C13.655 1.90094 13.163 1.93094 12.939 2.16694C10.663 4.44894 8.282 6.83394 5.796 9.32294C5.599 9.48494 5.5 9.67694 5.5 9.89694C5.5 10.1179 5.599 10.3149 5.796 10.4889L13.279 17.7949C13.4225 17.927 13.6119 17.9978 13.8069 17.9924C14.0019 17.987 14.187 17.9057 14.323 17.7659C14.681 17.4069 14.543 17.0529 14.381 16.8849C11.9909 14.5591 9.60525 12.2298 7.222 9.89694Z" fill="white" style="fill:white;fill-opacity:1;"/>
</svg>
