<svg width="20" height="20" viewBox="0 0 20 20" fill="none" xmlns="http://www.w3.org/2000/svg">
<path fill-rule="evenodd" clip-rule="evenodd" d="M12.778 9.89694C10.478 7.58994 8.23 5.33794 6.034 3.14294C5.91906 3.0221 5.85495 2.86171 5.85495 2.69494C5.85495 2.52816 5.91906 2.36777 6.034 2.24694C6.345 1.90094 6.837 1.93094 7.061 2.16694C9.337 4.44894 11.718 6.83394 14.204 9.32294C14.401 9.48494 14.5 9.67694 14.5 9.89694C14.5 10.1179 14.401 10.3149 14.204 10.4889L6.721 17.7949C6.57746 17.927 6.38807 17.9978 6.19311 17.9924C5.99815 17.987 5.81299 17.9057 5.677 17.7659C5.319 17.4069 5.457 17.0529 5.619 16.8849C8.00909 14.5591 10.3948 12.2298 12.778 9.89694Z" fill="white" style="fill:white;fill-opacity:1;"/>
</svg>
